<svg width="100" height="28" viewBox="0 0 100 28" fill="none" xmlns="http://www.w3.org/2000/svg">
<path d="M26.1289 0H30.6641V28H26.1289V0Z" fill="white"/>
<path d="M46.4401 19.1266C46.4401 23.4647 42.8908 23.859 41.7077 23.859C38.9472 23.859 38.5528 21.2957 38.5528 19.9154V9.07031H34.0176V19.7182C34.0176 22.2816 34.8063 24.6478 36.3838 26.0281C37.7641 27.4083 39.5387 27.9999 41.7077 27.9999C43.2852 27.9999 45.257 27.6055 46.4401 26.4224V27.9999H50.9753V9.07031H46.4401V19.1266Z" fill="white"/>
<path d="M59.8463 2.16895H55.3111V9.07035H51.959V13.4084H55.3111V27.9999H59.8463V13.4084H63.1984V9.07035H59.8463V2.16895Z" fill="white"/>
<path d="M77.3948 22.2814C76.4089 23.0701 75.0286 23.6617 73.6483 23.6617C70.4934 23.6617 68.3244 21.2955 68.3244 18.1406C68.3244 14.9856 70.4934 12.8166 73.6483 12.8166C75.0286 12.8166 76.4089 13.211 77.3948 14.1969L77.9863 14.7885L81.1413 11.8307L80.3525 11.2392C78.5779 9.66169 76.2117 8.67578 73.6483 8.67578C68.1272 8.67578 63.9863 12.8166 63.9863 18.3378C63.9863 23.8589 68.1272 27.9997 73.6483 27.9997C76.2117 27.9997 78.5779 27.0138 80.3525 25.4363L81.1413 24.8448L77.9863 21.6899L77.3948 22.2814Z" fill="white"/>
<path d="M97.1153 10.6479C95.735 9.26761 94.3548 8.67606 92.1857 8.67606C90.6083 8.67606 89.0308 9.07042 87.8477 10.2535V0H83.3125V28H87.8477V17.5493C87.8477 13.2113 90.8055 12.8169 91.9886 12.8169C94.7491 12.8169 94.5519 15.3803 94.5519 16.7606V27.8028H99.0871V16.9577C99.0871 14.3944 98.4956 12.0282 97.1153 10.6479Z" fill="white"/>
<path d="M73.4518 21.4925C75.1942 21.4925 76.6067 20.08 76.6067 18.3375C76.6067 16.5951 75.1942 15.1826 73.4518 15.1826C71.7094 15.1826 70.2969 16.5951 70.2969 18.3375C70.2969 20.08 71.7094 21.4925 73.4518 21.4925Z" fill="#EF4335"/>
<path d="M19.8181 21.0979C18.2406 22.6754 15.8744 23.6613 13.311 23.6613C8.38147 23.6613 4.83217 19.7177 4.83217 14.3937C4.83217 9.06977 8.38146 5.1261 13.5082 5.1261C15.8744 5.1261 18.2406 6.11202 20.0153 7.88667L20.6068 8.47822L23.5646 5.52047L22.973 4.92892C20.4096 2.36554 17.0575 0.985258 13.5082 0.985258C6.01527 0.788075 0.494141 6.70357 0.494141 14.3937C0.494141 22.0838 6.01527 27.9993 13.311 27.9993C16.8603 27.9993 20.4096 26.6191 22.7758 24.0557L23.3674 23.4641L20.4096 20.5064L19.8181 21.0979Z" fill="white"/>
</svg>
