<svg width="86" height="28" viewBox="0 0 86 28" fill="none" xmlns="http://www.w3.org/2000/svg">
<path d="M36.401 14.7351C36.401 18.7634 33.2496 21.7318 29.3821 21.7318C25.5147 21.7318 22.3633 18.7634 22.3633 14.7351C22.3633 10.6783 25.5147 7.73828 29.3821 7.73828C33.2496 7.73828 36.401 10.6783 36.401 14.7351ZM33.3285 14.7351C33.3285 12.2177 31.502 10.4954 29.3821 10.4954C27.2623 10.4954 25.4358 12.2177 25.4358 14.7351C25.4358 17.2272 27.2623 18.9748 29.3821 18.9748C31.502 18.9748 33.3285 17.224 33.3285 14.7351Z" fill="#EA4335"/>
<path d="M51.5416 14.7351C51.5416 18.7634 48.3902 21.7318 44.5228 21.7318C40.6553 21.7318 37.5039 18.7634 37.5039 14.7351C37.5039 10.6815 40.6553 7.73828 44.5228 7.73828C48.3902 7.73828 51.5416 10.6783 51.5416 14.7351ZM48.4691 14.7351C48.4691 12.2177 46.6426 10.4954 44.5228 10.4954C42.4029 10.4954 40.5764 12.2177 40.5764 14.7351C40.5764 17.2272 42.4029 18.9748 44.5228 18.9748C46.6426 18.9748 48.4691 17.224 48.4691 14.7351Z" fill="#FBBC05"/>
<path d="M66.0538 8.16099V20.7224C66.0538 25.8895 63.0065 27.9999 59.404 27.9999C56.0128 27.9999 53.9718 25.7318 53.2021 23.8769L55.8772 22.7634C56.3535 23.9022 57.5207 25.246 59.4008 25.246C61.7068 25.246 63.1358 23.8233 63.1358 21.1451V20.1388H63.0285C62.3409 20.9874 61.0159 21.7287 59.344 21.7287C55.8456 21.7287 52.6406 18.6814 52.6406 14.7603C52.6406 10.8108 55.8456 7.73828 59.344 7.73828C61.0128 7.73828 62.3377 8.4796 63.0285 9.30294H63.1358V8.16415H66.0538V8.16099ZM63.3535 14.7603C63.3535 12.2966 61.7099 10.4954 59.6185 10.4954C57.4986 10.4954 55.7226 12.2966 55.7226 14.7603C55.7226 17.1988 57.4986 18.9748 59.6185 18.9748C61.7099 18.9748 63.3535 17.1988 63.3535 14.7603Z" fill="#4285F4"/>
<path d="M70.864 0.797852V21.3024H67.8672V0.797852H70.864Z" fill="#34A853"/>
<path d="M82.5422 17.0381L84.9271 18.628C84.1573 19.7668 82.3025 21.7289 79.0975 21.7289C75.1227 21.7289 72.1543 18.6564 72.1543 14.7321C72.1543 10.5713 75.148 7.73535 78.7536 7.73535C82.3845 7.73535 84.1605 10.6249 84.7409 12.1864L85.0595 12.9814L75.7063 16.8551C76.4224 18.2589 77.536 18.975 79.0975 18.975C80.6621 18.975 81.7473 18.2053 82.5422 17.0381ZM75.2016 14.5208L81.4539 11.9246C81.1101 11.0508 80.0754 10.442 78.8577 10.442C77.2962 10.442 75.1227 11.8205 75.2016 14.5208Z" fill="#EA4335"/>
<path d="M11.0188 12.9147V9.94628H21.0219C21.1197 10.4636 21.1702 11.0756 21.1702 11.7381C21.1702 13.9652 20.5613 16.7191 18.5992 18.6812C16.6907 20.6686 14.2522 21.7285 11.022 21.7285C5.03465 21.7285 0 16.8516 0 10.8643C0 4.87693 5.03465 0 11.022 0C14.3343 0 16.6939 1.29967 18.4667 2.99366L16.3721 5.08828C15.1008 3.89586 13.3784 2.96843 11.0188 2.96843C6.64663 2.96843 3.2271 6.49206 3.2271 10.8643C3.2271 15.2365 6.64663 18.7601 11.0188 18.7601C13.8548 18.7601 15.4699 17.6213 16.5046 16.5866C17.3437 15.7475 17.8957 14.5488 18.1134 12.9116L11.0188 12.9147Z" fill="#4285F4"/>
</svg>
